<svg height="452pt" viewBox="-5 0 452 452" width="452pt" xmlns="http://www.w3.org/2000/svg"><path d="m326.671875 307.789062c10.960937 0 19.847656-8.886718 19.847656-19.847656 0-10.964844-8.886719-19.851562-19.847656-19.851562-10.964844 0-19.851563 8.886718-19.851563 19.851562 0 10.960938 8.886719 19.847656 19.851563 19.847656zm-126-19.238281h-35.363281c-1.664063 0-3.265625.664063-4.441406 1.84375-1.179688 1.179688-1.839844 2.777344-1.835938 4.445313v18.808594h-33.972656c-16.566406 0-30 13.433593-30 30v39.632812h-47.148438c-23.148437 0-41.914062-18.765625-41.910156-41.910156v-232.589844h429.578125v232.589844c.003906 23.144531-18.761719 41.910156-41.90625 41.910156h-47.3125c.109375-1.140625.160156-2.292969.160156-3.453125 0-21.925781-17.773437-39.703125-39.699219-39.707031v3.527344c0-16.566407-13.433593-30-30-30h-33.96875v-18.808594c0-3.472656-2.816406-6.289063-6.292968-6.289063zm0 0" fill="#6fe3ff"/><path d="m435.578125 47.910156v60.871094h-429.578125v-60.871094c-.003906-23.148437 18.761719-41.914062 41.910156-41.910156h345.761719c23.144531-.003906 41.910156 18.761719 41.90625 41.910156zm-224.40625 10.167969c.027344-8.765625-7.054687-15.898437-15.820313-15.929687-8.769531-.027344-15.902343 7.054687-15.929687 15.820312-.03125 8.769531 7.050781 15.902344 15.816406 15.929688 8.769531.027343 15.898438-7.050782 15.933594-15.820313zm-71.3125-.226563c.027344-8.773437-7.058594-15.902343-15.828125-15.929687-8.769531-.03125-15.902344 7.058594-15.929688 15.828125-.027343 8.769531 7.058594 15.902344 15.828126 15.929688 4.210937.015624 8.257812-1.644532 11.246093-4.613282s4.671875-7.003906 4.683594-11.214844zm-71.320313-.222656c.027344-8.765625-7.0625-15.894531-15.828124-15.917968-8.769532-.027344-15.894532 7.0625-15.921876 15.828124-.023437 8.769532 7.0625 15.894532 15.832032 15.921876 8.765625.023437 15.890625-7.0625 15.917968-15.832032zm0 0" fill="#e48e66"/><path d="m346.519531 379.828125c0 1.160156-.050781 2.3125-.160156 3.453125-1.78125 20.507812-18.953125 36.25-39.539063 36.25v-79.410156c21.925782.003906 39.699219 17.78125 39.699219 39.707031zm0 0" fill="#e48e66"/><path d="m346.519531 287.941406c0 10.960938-8.886719 19.847656-19.847656 19.847656-10.964844 0-19.851563-8.886718-19.851563-19.847656 0-10.964844 8.886719-19.851562 19.851563-19.851562 10.960937 0 19.847656 8.886718 19.847656 19.851562zm0 0" fill="#e48e66"/><path d="m159.03125 313.648438h117.789062c16.566407 0 30 13.433593 30 30v72.351562c0 16.570312-13.433593 30-30 30h-151.761718c-16.566406 0-30-13.429688-30-30v-72.351562c0-16.566407 13.433594-30 30-30zm111.480469 70.371093v-11.050781c0-6.625-5.375-12-12-12h-1.152344c-6.625 0-12 5.375-12 12v11.050781zm-44.433594 21.21875v-1.148437h-50.289063v1.148437c.003907 13.253907 10.746094 24 24 24h2.289063c13.257813 0 24-10.742187 24-24zm-69.566406-21.21875v-11.050781c0-6.625-5.375-12-12-12h-1.140625c-6.628906 0-12 5.375-12 12v11.050781zm0 0" fill="#f8ec7d"/><path d="m270.511719 372.96875v11.050781h-25.152344v-11.050781c0-6.625 5.375-12 12-12h1.152344c6.625 0 12 5.375 12 12zm0 0" fill="#e48e66"/><path d="m242.851562 294.839844v18.808594h-83.820312v-18.808594c-.003906-1.667969.65625-3.265625 1.835938-4.445313 1.175781-1.179687 2.777343-1.84375 4.441406-1.84375h71.25c3.476562 0 6.292968 2.816407 6.292968 6.289063zm0 0" fill="#e48e66"/><path d="m226.078125 404.089844v1.148437c0 13.257813-10.742187 24-24 24h-2.289063c-13.253906 0-23.996093-10.746093-24-24v-1.148437zm0 0" fill="#e48e66"/><path d="m195.339844 42.148438c8.769531.027343 15.855468 7.152343 15.828125 15.921874-.023438 8.765626-7.152344 15.855469-15.917969 15.828126-8.765625-.023438-15.855469-7.152344-15.828125-15.917969s7.152344-15.851563 15.917969-15.832031zm0 0" fill="#f8ec7d"/><path d="m156.511719 372.96875v11.050781h-25.140625v-11.050781c0-6.625 5.371094-12 12-12h1.140625c6.625 0 12 5.375 12 12zm0 0" fill="#e48e66"/><path d="m124.03125 41.929688c8.765625.03125 15.847656 7.164062 15.820312 15.929687-.03125 8.769531-7.164062 15.851563-15.929687 15.820313-8.769531-.03125-15.851563-7.164063-15.820313-15.929688.027344-8.769531 7.160157-15.851562 15.929688-15.820312zm0 0" fill="#f8ec7d"/><path d="m52.71875 41.699219c8.769531.027343 15.859375 7.160156 15.832031 15.929687-.027343 8.769532-7.160156 15.859375-15.929687 15.832032-8.769532-.027344-15.859375-7.160157-15.832032-15.929688.027344-8.773438 7.160157-15.859375 15.929688-15.832031zm0 0" fill="#f8ec7d"/><g fill="#63316d"><path d="m393.671875 0h-345.761719c-26.449218.03125-47.878906 21.460938-47.910156 47.910156v293.460938c.03125 26.445312 21.460938 47.878906 47.910156 47.910156h41.148438v26.71875c.023437 19.871094 16.128906 35.976562 36 36h151.761718c16.304688-.023438 30.566407-10.980469 34.785157-26.730469 19.648437-2.1875 35.710937-16.671875 39.910156-35.988281h42.15625c26.445313-.03125 47.878906-21.464844 47.90625-47.910156v-293.460938c-.027344-26.449218-21.460937-47.878906-47.90625-47.910156zm-116.851563 440h-151.761718c-13.246094-.015625-23.984375-10.75-24-24v-72.351562c.015625-13.246094 10.753906-23.984376 24-24h151.761718c13.25.015624 23.984376 10.753906 24 24v72.351562c-.015624 13.25-10.75 23.984375-24 24zm-40.261718-145.449219c.160156 0 .292968.128907.292968.289063v12.808594h-71.820312v-12.808594c-.003906-.074219.023438-.148438.078125-.203125.050781-.054688.125-.085938.199219-.085938zm76.261718 118.433594v-66.328125c16.027344 2.925781 27.679688 16.878906 27.699219 33.171875 0 1-.042969 1.964844-.136719 2.941406-1.398437 15.101563-12.652343 27.4375-27.5625 30.214844zm13.851563-111.195313c-7.652344 0-13.851563-6.199218-13.851563-13.847656 0-7.652344 6.199219-13.851562 13.851563-13.851562 7.648437 0 13.847656 6.199218 13.847656 13.851562-.007812 7.644532-6.203125 13.839844-13.847656 13.847656zm67 75.492188h-41.226563c-.796874-14.136719-8.101562-27.105469-19.773437-35.117188v-29.085937c12.75-3.039063 21.203125-15.144531 19.671875-28.164063-1.53125-13.015624-12.566406-22.828124-25.671875-22.828124-13.109375 0-24.144531 9.8125-25.675781 22.828124-1.53125 13.019532 6.925781 25.125 19.675781 28.164063v23.195313c-2.953125-.941407-5.992187-1.578126-9.070313-1.902344-4.222656-15.742188-18.480468-26.699219-34.78125-26.722656h-27.96875v-12.808594c-.007812-6.785156-5.507812-12.285156-12.292968-12.289063h-29.886719v-12.441406c0-3.3125-2.6875-6-6-6-3.316406 0-6 2.6875-6 6v12.441406h-29.363281c-6.78125.011719-12.273438 5.507813-12.277344 12.289063v12.808594h-27.972656c-19.871094.023437-35.976563 16.128906-36 36v33.632812h-41.148438c-19.824218-.023438-35.886718-16.085938-35.910156-35.910156v-226.589844h417.578125v226.589844c-.019531 19.824218-16.085937 35.886718-35.90625 35.910156zm35.90625-274.5h-417.578125v-54.871094c.023438-19.824218 16.085938-35.886718 35.910156-35.910156h345.761719c19.820313.023438 35.886719 16.085938 35.90625 35.910156zm0 0"/><path d="m124.050781 35.929688h-.074219c-12.082031-.019532-21.890624 9.761718-21.910156 21.84375-.015625 12.078124 9.761719 21.886718 21.84375 21.90625h.078125c12.050781-.003907 21.832031-9.757813 21.871094-21.808594v-.007813c.019531-12.074219-9.738281-21.882812-21.808594-21.933593zm6.890625 28.878906c-1.84375 1.84375-4.347656 2.878906-6.957031 2.871094h-.035156c-5.453125-.007813-9.867188-4.4375-9.859375-9.890626.011718-5.453124 4.4375-9.867187 9.890625-9.859374h.035156c3.996094.011718 7.589844 2.429687 9.105469 6.125 1.515625 3.695312.65625 7.941406-2.179688 10.753906zm0 0"/><path d="m52.734375 35.699219h-.050781c-12.085938-.019531-21.898438 9.757812-21.917969 21.84375-.023437 12.082031 9.757813 21.894531 21.839844 21.917969h.054687c12.082032.019531 21.894532-9.757813 21.917969-21.84375.019531-12.082032-9.761719-21.894532-21.84375-21.917969zm9.804687 21.917969c-.011718 5.441406-4.433593 9.847656-9.875 9.84375h-.023437c-5.457031-.011719-9.871094-4.441407-9.863281-9.898438.011718-5.457031 4.441406-9.871094 9.898437-9.863281h.023438c5.449219.027343 9.855469 4.457031 9.839843 9.910156zm0 0"/><path d="m195.359375 36.148438h-.078125c-12.078125-.015626-21.886719 9.765624-21.90625 21.84375-.015625 12.082031 9.765625 21.890624 21.84375 21.90625h.074219c12.082031.019531 21.890625-9.757813 21.910156-21.839844.019531-12.082032-9.761719-21.890625-21.84375-21.910156zm-.070313 31.75h-.03125c-5.453124-.003907-9.871093-4.429688-9.863281-9.886719.007813-5.453125 4.433594-9.867188 9.886719-9.863281h.035156c5.453125.007812 9.867188 4.4375 9.863282 9.890624-.007813 5.453126-4.4375 9.867188-9.890626 9.859376zm0 0"/><path d="m144.511719 354.96875h-1.140625c-9.9375.011719-17.988282 8.066406-18 18v11.050781c0 3.3125 2.683594 6 6 6h25.140625c3.3125 0 6-2.6875 6-6v-11.050781c-.011719-9.933594-8.066407-17.988281-18-18zm6 23.050781h-13.140625v-5.050781c.003906-3.3125 2.6875-5.996094 6-6h1.140625c3.308593.003906 5.996093 2.6875 6 6zm0 0"/><path d="m258.511719 354.96875h-1.152344c-9.9375.011719-17.988281 8.066406-18 18v11.050781c0 3.3125 2.6875 6 6 6h25.152344c3.3125 0 6-2.6875 6-6v-11.050781c-.011719-9.933594-8.066407-17.988281-18-18zm6 23.050781h-13.152344v-5.050781c.003906-3.3125 2.6875-5.996094 6-6h1.152344c3.308593.003906 5.996093 2.6875 6 6zm0 0"/><path d="m226.078125 398.089844h-50.289063c-3.3125 0-6 2.6875-6 6v1.148437c.019532 16.5625 13.441407 29.984375 30 30h2.289063c16.5625-.015625 29.984375-13.4375 30-30v-1.148437c0-3.3125-2.683594-6-6-6zm-24 25.148437h-2.289063c-8.070312-.007812-15.148437-5.378906-17.335937-13.148437h36.960937c-2.183593 7.769531-9.265624 13.140625-17.335937 13.148437zm0 0"/><path d="m400.371094 210.730469h-8.402344c-3.3125 0-6 2.6875-6 6s2.6875 6 6 6h8.402344c3.3125 0 6-2.6875 6-6s-2.6875-6-6-6zm0 0"/><path d="m366.808594 210.730469h-141.160156c-3.3125 0-6 2.6875-6 6s2.6875 6 6 6h141.160156c3.316406 0 6-2.6875 6-6s-2.683594-6-6-6zm0 0"/><path d="m206.941406 216.730469c0-3.3125-2.6875-6-6-6h-41.910156c-3.316406 0-6 2.6875-6 6s2.683594 6 6 6h41.910156c3.3125 0 6-2.6875 6-6zm0 0"/><path d="m69.769531 210.730469c-3.3125 0-6 2.6875-6 6s2.6875 6 6 6h64.808594c3.316406 0 6-2.6875 6-6s-2.683594-6-6-6zm0 0"/><path d="m41.210938 222.730469h.808593c3.3125 0 6-2.6875 6-6s-2.6875-6-6-6h-.808593c-3.316407 0-6 2.6875-6 6s2.683593 6 6 6zm0 0"/><path d="m400.371094 173.921875h-57.421875c-3.3125 0-6 2.683594-6 6 0 3.3125 2.6875 6 6 6h57.421875c3.3125 0 6-2.6875 6-6 0-3.316406-2.6875-6-6-6zm0 0"/><path d="m315.359375 185.921875c3.3125 0 6-2.6875 6-6 0-3.316406-2.6875-6-6-6h-12.03125c-3.3125 0-6 2.683594-6 6 0 3.3125 2.6875 6 6 6zm0 0"/><path d="m281.519531 179.921875c0-3.316406-2.6875-6-6-6h-160.917969c-3.316406 0-6 2.683594-6 6 0 3.3125 2.683594 6 6 6h160.917969c3.3125 0 6-2.6875 6-6zm0 0"/><path d="m41.210938 185.921875h48.609374c3.3125 0 6-2.6875 6-6 0-3.316406-2.6875-6-6-6h-48.609374c-3.316407 0-6 2.683594-6 6 0 3.3125 2.683593 6 6 6zm0 0"/><path d="m400.371094 140.230469h-137.472656c-3.3125 0-6 2.6875-6 6s2.6875 6 6 6h137.472656c3.3125 0 6-2.6875 6-6s-2.6875-6-6-6zm0 0"/><path d="m191.351562 152.230469h43.589844c3.3125 0 6-2.6875 6-6s-2.6875-6-6-6h-43.589844c-3.316406 0-6 2.6875-6 6s2.683594 6 6 6zm0 0"/><path d="m166.71875 152.230469h.519531c3.316407 0 6-2.6875 6-6s-2.683593-6-6-6h-.519531c-3.3125 0-6 2.6875-6 6s2.6875 6 6 6zm0 0"/><path d="m41.210938 152.230469h97.699218c3.3125 0 6-2.6875 6-6s-2.6875-6-6-6h-97.699218c-3.316407 0-6 2.6875-6 6s2.683593 6 6 6zm0 0"/><path d="m289.078125 247.53125h-3.046875c-3.316406 0-6 2.683594-6 6 0 3.3125 2.683594 6 6 6h3.046875c3.316406 0 6-2.6875 6-6 0-3.316406-2.683594-6-6-6zm0 0"/><path d="m260.5 247.53125h-54.511719c-3.3125 0-6 2.683594-6 6 0 3.3125 2.6875 6 6 6h54.511719c3.3125 0 6-2.6875 6-6 0-3.316406-2.6875-6-6-6zm0 0"/><path d="m171.21875 247.53125h-130.007812c-3.316407 0-6 2.683594-6 6 0 3.3125 2.683593 6 6 6h130.007812c3.316406 0 6-2.6875 6-6 0-3.316406-2.683594-6-6-6zm0 0"/></g></svg>