<svg height="452pt" viewBox="-4 0 451 452" width="452pt" xmlns="http://www.w3.org/2000/svg" xmlns:xlink="http://www.w3.org/1999/xlink"><linearGradient id="lg1"><stop offset=".322" stop-color="#a163f5"/><stop offset=".466" stop-color="#b074ee"/><stop offset=".752" stop-color="#d8a1dd"/><stop offset=".898" stop-color="#efbad3"/></linearGradient><linearGradient id="linear0" gradientUnits="userSpaceOnUse" x1="221.5" x2="221.5" xlink:href="#lg1" y1="458" y2="7.218"/><linearGradient id="linear1" gradientUnits="userSpaceOnUse" x1="124.69" x2="124.69" xlink:href="#lg1" y1="458" y2="7.218"/><linearGradient id="linear2" gradientUnits="userSpaceOnUse" x1="53.377" x2="53.377" xlink:href="#lg1" y1="458" y2="7.218"/><linearGradient id="linear3" gradientUnits="userSpaceOnUse" x1="196.003" x2="196.003" xlink:href="#lg1" y1="458" y2="7.218"/><linearGradient id="linear4" gradientUnits="userSpaceOnUse" x1="145" x2="145" xlink:href="#lg1" y1="458" y2="7.218"/><linearGradient id="linear5" gradientUnits="userSpaceOnUse" x1="259" x2="259" xlink:href="#lg1" y1="458" y2="7.218"/><linearGradient id="linear6" gradientUnits="userSpaceOnUse" x1="201.5" x2="201.5" xlink:href="#lg1" y1="458" y2="7.218"/><linearGradient id="linear7" gradientUnits="userSpaceOnUse" x1="396.879" x2="396.879" xlink:href="#lg1" y1="458" y2="7.218"/><linearGradient id="linear8" gradientUnits="userSpaceOnUse" x1="296.94" x2="296.94" xlink:href="#lg1" y1="458" y2="7.218"/><linearGradient id="linear9" gradientUnits="userSpaceOnUse" x1="180.693" x2="180.693" xlink:href="#lg1" y1="458" y2="7.218"/><linearGradient id="linear10" gradientUnits="userSpaceOnUse" x1="102.887" x2="102.887" xlink:href="#lg1" y1="458" y2="7.218"/><linearGradient id="linear11" gradientUnits="userSpaceOnUse" x1="42.328" x2="42.328" xlink:href="#lg1" y1="458" y2="7.218"/><linearGradient id="linear12" gradientUnits="userSpaceOnUse" x1="372.367" x2="372.367" xlink:href="#lg1" y1="458" y2="7.218"/><linearGradient id="linear13" gradientUnits="userSpaceOnUse" x1="310.058" x2="310.058" xlink:href="#lg1" y1="458" y2="7.218"/><linearGradient id="linear14" gradientUnits="userSpaceOnUse" x1="195.774" x2="195.774" xlink:href="#lg1" y1="458" y2="7.218"/><linearGradient id="linear15" gradientUnits="userSpaceOnUse" x1="66.225" x2="66.225" xlink:href="#lg1" y1="458" y2="7.218"/><linearGradient id="linear16" gradientUnits="userSpaceOnUse" x1="332.343" x2="332.343" xlink:href="#lg1" y1="458" y2="7.218"/><linearGradient id="linear17" gradientUnits="userSpaceOnUse" x1="213.854" x2="213.854" xlink:href="#lg1" y1="458" y2="7.218"/><linearGradient id="linear18" gradientUnits="userSpaceOnUse" x1="167.686" x2="167.686" xlink:href="#lg1" y1="458" y2="7.218"/><linearGradient id="linear19" gradientUnits="userSpaceOnUse" x1="90.77" x2="90.77" xlink:href="#lg1" y1="458" y2="7.218"/><linearGradient id="linear20" gradientUnits="userSpaceOnUse" x1="288.269" x2="288.269" xlink:href="#lg1" y1="458" y2="7.218"/><linearGradient id="linear21" gradientUnits="userSpaceOnUse" x1="233.955" x2="233.955" xlink:href="#lg1" y1="458" y2="7.218"/><linearGradient id="linear22" gradientUnits="userSpaceOnUse" x1="106.924" x2="106.924" xlink:href="#lg1" y1="458" y2="7.218"/><path d="m394.378906 0h-345.757812c-26.488282.0117188-47.992188 21.421875-48.121094 47.910156v293.460938c0 26.417968 21.699219 47.628906 48.121094 47.628906h40.878906v27c.148438 19.925781 16.34375 36 36.269531 36h151.757813c16.324218-.082031 30.574218-11.085938 34.78125-26.863281 19.6875-2.21875 35.761718-16.765625 39.933594-36.136719h42.136718c26.421875 0 48.121094-21.210938 48.121094-47.628906v-293.460938c-.128906-26.488281-21.632812-47.8984372-48.121094-47.910156zm-116.851562 440h-151.757813c-13.300781.007812-24.128906-10.699219-24.269531-24v-72.347656c0-13.234375 11.035156-23.652344 24.269531-23.652344h151.757813c6.324218-.070312 12.414062 2.386719 16.914062 6.828125 4.503906 4.445313 7.042969 10.5 7.058594 16.824219v72.347656c-.003906 13.242188-10.730469 23.984375-23.972656 24zm-40.257813-145c.160157 0 .230469-.320312.230469-.164062v13.164062h-72v-13.164062c0-.15625.367188.164062.523438.164062zm76.230469 118v-66.34375c16.085938 2.828125 27.792969 16.835938 27.71875 33.167969 0 .941406-.039062 1.867187-.113281 2.785156-.011719.101563-.027344.199219-.03125.300781-1.320313 15.117188-12.628907 27.460938-27.574219 30.089844zm13.878906-111.199219c-7.652344 0-13.851562-6.203125-13.851562-13.851562 0-7.652344 6.199218-13.851563 13.851562-13.851563 7.648438-.003906 13.851563 6.199219 13.851563 13.847656-.015625 7.644532-6.210938 13.835938-13.851563 13.84375zm67 75.207031h-41.222656c-.800781-14-8.65625-27.039062-19.65625-34.835937v-29.089844c11.535156-2.925781 19.65625-13.246093 19.789062-25.144531.058594-9.269531-4.855468-17.863281-12.875-22.515625-8.019531-4.652344-17.917968-4.652344-25.9375 0-8.019531 4.652344-12.933593 13.246094-12.875 22.515625 0 12.191406 8.902344 22.429688 19.902344 25.144531v23.191407c-2.980468-.875-6.039062-1.453126-9.132812-1.726563-4.269532-15.714844-18.5625-26.601563-34.84375-26.546875h-28.027344v-13.164062c0-6.773438-5.453125-11.835938-12.230469-11.835938h-29.769531v-12.890625c0-3.3125-2.6875-6-6-6s-6 2.6875-6 6v12.890625h-29.476562c-6.773438 0-12.523438 5.0625-12.523438 11.835938v13.164062h-27.730469c-19.851562 0-36.269531 15.800781-36.269531 35.652344v33.347656h-40.878906c-19.800782 0-36.121094-15.828125-36.121094-35.628906v-226.371094h418v226.371094c0 19.800781-16.320312 35.628906-36.121094 35.628906zm36.121094-274.007812h-418v-55.089844c.121094-19.863281 16.253906-35.90625 36.121094-35.910156h345.757812c19.863282.003906 36 16.046875 36.121094 35.910156zm0 0" fill="url(#linear0)"/><path d="m124.757812 36h-.070312c-12.148438-.019531-22.011719 9.816406-22.03125 21.964844-.019531 12.152344 9.816406 22.015625 21.964844 22.035156h.070312c12.148438.019531 22.015625-9.816406 22.035156-21.964844.015626-12.152344-9.816406-22.015625-21.96875-22.035156zm-.066406 32h-.03125c-5.523437-.007812-9.996094-4.492188-9.984375-10.015625.007813-5.523437 4.492188-9.992187 10.011719-9.984375h.035156c5.519532.007812 9.992188 4.492188 9.984375 10.015625-.007812 5.523437-4.492187 9.992187-10.015625 9.984375zm0 0" fill="url(#linear1)"/><path d="m53.445312 36h-.070312c-12.019531-.054688-21.8125 9.640625-21.875 21.660156-.03125 5.714844 2.265625 11.199219 6.359375 15.1875 4.109375 4.050782 9.679687 6.269532 15.449219 6.152344h.070312c5.761719.042969 11.308594-2.207031 15.410156-6.253906 4.105469-4.046875 6.429688-9.5625 6.464844-15.324219.03125-5.730469-2.265625-11.222656-6.359375-15.230469-4.105469-4.0625-9.675781-6.292968-15.449219-6.191406zm-.066406 31h-.03125c-2.59375.085938-5.113281-.882812-6.976562-2.6875-1.84375-1.75-2.882813-4.1875-2.871094-6.730469.023438-2.585937 1.078125-5.054687 2.933594-6.855469 1.859375-1.800781 4.359375-2.78125 6.945312-2.726562h.027344c2.605469-.058594 5.121094.941406 6.976562 2.765625 1.84375 1.734375 2.882813 4.160156 2.871094 6.691406-.023437 2.582031-1.082031 5.046875-2.941406 6.839844-1.855469 1.792969-4.355469 2.769531-6.933594 2.703125zm0 0" fill="url(#linear2)"/><path d="m196.070312 36h-.070312c-8.851562.046875-16.8125 5.398438-20.199219 13.574219-3.390625 8.179687-1.542969 17.589843 4.683594 23.882812 4.066406 4.160157 9.632813 6.519531 15.449219 6.542969h.074218c12.148438.019531 22.015626-9.816406 22.03125-21.96875.019532-12.148438-9.816406-22.011719-21.96875-22.03125zm6.894532 29.03125c-3.871094 3.84375-10.121094 3.824219-13.96875-.042969-2.808594-2.855469-3.640625-7.109375-2.113282-10.808593 1.523438-3.703126 5.113282-6.136719 9.117188-6.179688h.03125c4.011719.054688 7.597656 2.503906 9.109375 6.21875s.652344 7.972656-2.179687 10.8125zm0 0" fill="url(#linear3)"/><path d="m145.222656 355h-1.144531c-4.726563.015625-9.246094 1.925781-12.550781 5.304688-3.304688 3.375-5.117188 7.9375-5.027344 12.664062v11.046875c0 3.3125 2.261719 5.984375 5.578125 5.984375h25.144531c3.367188.027344 6.144532-2.621094 6.277344-5.984375v-11.046875c-.144531-9.984375-8.292969-17.996094-18.277344-17.96875zm6.277344 23h-13v-5.03125c0-3.3125 2.269531-5.96875 5.578125-5.96875h1.144531c3.359375-.03125 6.140625 2.609375 6.277344 5.96875zm0 0" fill="url(#linear4)"/><path d="m259.21875 355h-1.144531c-4.726563.015625-9.246094 1.925781-12.550781 5.304688-3.304688 3.375-5.113282 7.9375-5.023438 12.664062v11.046875c0 3.3125 2.257812 5.984375 5.574219 5.984375h25.144531c3.367188.027344 6.144531-2.621094 6.28125-5.984375v-11.046875c-.148438-9.984375-8.296875-17.996094-18.28125-17.96875zm6.28125 23h-13v-5.03125c0-3.3125 2.265625-5.96875 5.574219-5.96875h1.144531c3.363281-.03125 6.140625 2.609375 6.28125 5.96875zm0 0" fill="url(#linear5)"/><path d="m226.792969 398h-50.292969c-3.332031.042969-6.007812 2.757812-6 6.089844v1.144531c.019531 7.929687 3.191406 15.527344 8.820312 21.109375 5.628907 5.585938 13.25 8.699219 21.179688 8.65625h2.292969c7.898437.035156 15.480469-3.09375 21.0625-8.683594s8.691406-13.179687 8.644531-21.082031v-1.144531c.070312-1.570313-.496094-3.101563-1.570312-4.246094-1.074219-1.144531-2.566407-1.8125-4.136719-1.84375zm-24 25h-2.292969c-8.242188 0-15.210938-5-17.335938-13h36.964844c-2.121094 8-9.089844 13-17.335937 13zm0 0" fill="url(#linear6)"/><path d="m401.078125 211h-8.394531c-3.316406 0-6 2.6875-6 6s2.683594 6 6 6h8.394531c3.3125 0 6-2.6875 6-6s-2.6875-6-6-6zm0 0" fill="url(#linear7)"/><path d="m367.519531 211h-141.160156c-3.3125 0-6 2.6875-6 6s2.6875 6 6 6h141.160156c3.3125 0 6-2.6875 6-6s-2.6875-6-6-6zm0 0" fill="url(#linear8)"/><path d="m207.648438 217c0-3.3125-2.6875-6-6-6h-41.910157c-3.3125 0-6 2.6875-6 6s2.6875 6 6 6h41.910157c3.3125 0 6-2.6875 6-6zm0 0" fill="url(#linear9)"/><path d="m70.480469 211c-3.3125 0-6 2.6875-6 6s2.6875 6 6 6h64.8125c3.3125 0 6-2.6875 6-6s-2.6875-6-6-6zm0 0" fill="url(#linear10)"/><path d="m41.921875 223h.808594c3.316406 0 6-2.6875 6-6s-2.683594-6-6-6h-.808594c-3.3125 0-6 2.6875-6 6s2.6875 6 6 6zm0 0" fill="url(#linear11)"/><path d="m401.078125 174h-57.421875c-3.3125 0-6 2.6875-6 6s2.6875 6 6 6h57.421875c3.3125 0 6-2.6875 6-6s-2.6875-6-6-6zm0 0" fill="url(#linear12)"/><path d="m316.070312 186c3.316407 0 6-2.6875 6-6s-2.683593-6-6-6h-12.027343c-3.3125 0-6 2.6875-6 6s2.6875 6 6 6zm0 0" fill="url(#linear13)"/><path d="m282.234375 180c0-3.3125-2.6875-6-6-6h-160.921875c-3.3125 0-6 2.6875-6 6s2.6875 6 6 6h160.921875c3.3125 0 6-2.6875 6-6zm0 0" fill="url(#linear14)"/><path d="m41.921875 186h48.601563c3.3125 0 6-2.6875 6-6s-2.6875-6-6-6h-48.601563c-3.3125 0-6 2.6875-6 6s2.6875 6 6 6zm0 0" fill="url(#linear15)"/><path d="m401.078125 140h-137.46875c-3.3125 0-6 2.6875-6 6s2.6875 6 6 6h137.46875c3.3125 0 6-2.6875 6-6s-2.6875-6-6-6zm0 0" fill="url(#linear16)"/><path d="m192.058594 152h43.589844c3.3125 0 6-2.6875 6-6s-2.6875-6-6-6h-43.589844c-3.3125 0-6 2.6875-6 6s2.6875 6 6 6zm0 0" fill="url(#linear17)"/><path d="m167.425781 152h.519531c3.3125 0 6-2.6875 6-6s-2.6875-6-6-6h-.519531c-3.3125 0-6 2.6875-6 6s2.6875 6 6 6zm0 0" fill="url(#linear18)"/><path d="m41.921875 152h97.695313c3.3125 0 6-2.6875 6-6s-2.6875-6-6-6h-97.695313c-3.3125 0-6 2.6875-6 6s2.6875 6 6 6zm0 0" fill="url(#linear19)"/><path d="m289.792969 248h-3.046875c-3.316406 0-6 2.6875-6 6s2.683594 6 6 6h3.046875c3.3125 0 6-2.6875 6-6s-2.6875-6-6-6zm0 0" fill="url(#linear20)"/><path d="m261.210938 248h-54.511719c-3.3125 0-6 2.6875-6 6s2.6875 6 6 6h54.515625c3.3125 0 6-2.6875 6-6s-2.6875-6-6-6zm0 0" fill="url(#linear21)"/><path d="m171.925781 248h-130c-3.3125 0-6 2.6875-6 6s2.6875 6 6 6h130c3.3125 0 6-2.6875 6-6s-2.6875-6-6-6zm0 0" fill="url(#linear22)"/></svg>